<svg width="28" height="28" viewBox="0 0 28 28" fill="none" xmlns="http://www.w3.org/2000/svg">
<path d="M25.6669 14C25.6669 14.644 25.1454 15.1667 24.5003 15.1667H6.31669L12.4918 21.3418C12.948 21.798 12.948 22.5354 12.4918 22.9916C12.2643 23.2191 11.9656 23.3334 11.6669 23.3334C11.3683 23.3334 11.0696 23.2191 10.8421 22.9916L2.67655 14.8261C2.56805 14.7176 2.48284 14.5893 2.42334 14.4458C2.3055 14.1611 2.3055 13.8389 2.42334 13.5543C2.48284 13.4108 2.56805 13.2825 2.67655 13.174L10.8421 5.00851C11.2982 4.55234 12.0357 4.55234 12.4918 5.00851C12.948 5.46467 12.948 6.20208 12.4918 6.65825L6.31669 12.8334H24.5003C25.1454 12.8334 25.6669 13.356 25.6669 14Z" fill="black"/>
</svg>
