<svg width="28" height="28" viewBox="0 0 28 28" fill="none" xmlns="http://www.w3.org/2000/svg">
<path d="M25.3239 14.8262L17.1584 22.9917C16.9309 23.2192 16.6322 23.3335 16.3335 23.3335C16.0348 23.3335 15.7361 23.2192 15.5086 22.9917C15.0525 22.5355 15.0525 21.7981 15.5086 21.342L21.6838 15.1668H3.50016C2.855 15.1668 2.3335 14.6442 2.3335 14.0002C2.3335 13.3562 2.855 12.8335 3.50016 12.8335H21.6838L15.5086 6.65837C15.0525 6.2022 15.0525 5.4648 15.5086 5.00863C15.9648 4.55246 16.7022 4.55246 17.1584 5.00863L25.3239 13.1742C25.4324 13.2827 25.5176 13.4109 25.5771 13.5544C25.6949 13.8391 25.6949 14.1613 25.5771 14.4459C25.5176 14.5894 25.4324 14.7177 25.3239 14.8262Z" fill="black"/>
</svg>
