<svg width="30" height="31" viewBox="0 0 30 31" fill="none" xmlns="http://www.w3.org/2000/svg">
<path d="M23.125 3.3125H8.75C5.7275 3.3125 4.0625 4.9775 4.0625 8V23C4.0625 25.8037 5.94625 27.6875 8.75 27.6875H23.125C24.675 27.6875 25.9375 26.4263 25.9375 24.875V17.375V6.125C25.9375 4.57375 24.675 3.3125 23.125 3.3125ZM11.25 8.3125H18.75C19.2675 8.3125 19.6875 8.7325 19.6875 9.25C19.6875 9.7675 19.2675 10.1875 18.75 10.1875H11.25C10.7325 10.1875 10.3125 9.7675 10.3125 9.25C10.3125 8.7325 10.7325 8.3125 11.25 8.3125ZM11.25 12.0625H16.25C16.7675 12.0625 17.1875 12.4825 17.1875 13C17.1875 13.5175 16.7675 13.9375 16.25 13.9375H11.25C10.7325 13.9375 10.3125 13.5175 10.3125 13C10.3125 12.4825 10.7325 12.0625 11.25 12.0625ZM24.0625 24.875C24.0625 25.3925 23.6413 25.8125 23.125 25.8125H8.75C6.2125 25.8125 5.9375 23.845 5.9375 23C5.9375 22.155 6.2125 20.1875 8.75 20.1875H23.125C23.3062 20.1875 23.4814 20.1663 23.6526 20.1338C23.7076 20.1238 23.76 20.105 23.8138 20.0912C23.8963 20.07 23.9825 20.055 24.0625 20.0262V24.875Z" fill="black"/>
</svg>
