<svg width="24" height="23" viewBox="0 0 24 23" fill="none" xmlns="http://www.w3.org/2000/svg">
<path d="M10.1 10.4375C10.4125 10.575 10.7375 10.6625 11.0625 10.7375V22.6375C10.8625 22.5875 10.6625 22.5125 10.475 22.425L2.97504 19.0875C1.62504 18.4875 0.75 17.15 0.75 15.6625V7.33752C0.75 7.00002 0.799982 6.66251 0.887482 6.35001L10.1 10.4375ZM15.5249 7.65002L5.33755 2.8625L2.97504 3.91249C2.53754 4.09999 2.16249 4.375 1.83749 4.7L10.8499 8.71249C11.5749 9.03749 12.4126 9.03749 13.1501 8.71249L15.5249 7.65002ZM22.1625 4.7C21.8375 4.375 21.4625 4.09999 21.025 3.91249L13.525 0.575012C12.55 0.137512 11.45 0.137512 10.475 0.575012L7.61249 1.85L17.8 6.63748L22.1625 4.7ZM23.1125 6.35001L18.725 8.3V11.3625C18.725 11.875 18.3 12.3 17.7875 12.3C17.275 12.3 16.85 11.875 16.85 11.3625V9.12501L13.9 10.4375C13.5875 10.5625 13.2625 10.6625 12.9375 10.7375V22.6375C13.1375 22.5875 13.3375 22.5125 13.525 22.425L21.025 19.0875C22.375 18.4875 23.25 17.15 23.25 15.6625V7.33752C23.25 7.00002 23.2 6.66251 23.1125 6.35001Z" fill="black"/>
</svg>
