<svg width="19" height="26" viewBox="0 0 19 26" fill="none" xmlns="http://www.w3.org/2000/svg">
<path d="M18.4158 9.37509C18.4583 12.1516 17.0985 14.305 15.3986 16.2741C14.7271 17.0603 14.1278 17.8124 13.7793 18.7417C13.717 18.9075 13.5666 19.0222 13.3909 19.0222H10.6954C10.4602 19.0222 10.2703 18.8323 10.2703 18.5972V14.8575L12.7919 12.3359C13.2027 11.9251 13.2027 11.245 12.7919 10.8342C12.3811 10.4234 11.7011 10.4234 11.2902 10.8342L9.20789 12.9166L7.12553 10.8342C6.71472 10.4234 6.03467 10.4234 5.62385 10.8342C5.21304 11.245 5.21304 11.9251 5.62385 12.3359L8.14544 14.8575V18.5972C8.14544 18.8323 7.95554 19.0222 7.72039 19.0222H5.00755C4.83189 19.0222 4.68322 18.9088 4.62089 18.7445C4.25966 17.7982 3.64645 17.0319 2.96081 16.2315C1.41672 14.4183 0 12.1375 0 9.46017C0 4.28958 4.26388 0.110618 9.47696 0.252278C14.3359 0.393937 18.3308 4.53032 18.4158 9.37509ZM13.0326 21.1471C12.8655 21.1471 5.5503 21.1471 5.38314 21.1471C4.95816 21.1471 4.95809 21.5012 4.95809 21.5012C4.95809 22.9178 5.43957 23.9803 6.20453 24.6886C6.9695 25.3969 8.03211 25.751 9.20789 25.751C10.3837 25.751 11.4463 25.3969 12.2112 24.6886C12.9762 23.9803 13.4577 22.9178 13.4577 21.5012C13.4577 21.5012 13.4576 21.1471 13.0326 21.1471Z" fill="black"/>
</svg>
