<svg width="20" height="21" viewBox="0 0 20 21" fill="none" xmlns="http://www.w3.org/2000/svg">
<path d="M17.25 8.625H2.75004C2.61171 8.625 2.5 8.73671 2.5 8.87504V15.5C2.5 17.1667 3.33333 18 5 18H15C16.6667 18 17.5 17.1667 17.5 15.5V8.87504C17.5 8.73671 17.3883 8.625 17.25 8.625ZM6.68335 15.5C6.22335 15.5 5.84574 15.1267 5.84574 14.6667C5.84574 14.2067 6.21501 13.8333 6.67501 13.8333H6.68335C7.14418 13.8333 7.51668 14.2067 7.51668 14.6667C7.51668 15.1267 7.14335 15.5 6.68335 15.5ZM6.68335 12.1667C6.22335 12.1667 5.84574 11.7933 5.84574 11.3333C5.84574 10.8733 6.21501 10.5 6.67501 10.5H6.68335C7.14418 10.5 7.51668 10.8733 7.51668 11.3333C7.51668 11.7933 7.14335 12.1667 6.68335 12.1667ZM10.0167 15.5C9.55668 15.5 9.17908 15.1267 9.17908 14.6667C9.17908 14.2067 9.54834 13.8333 10.0083 13.8333H10.0167C10.4775 13.8333 10.85 14.2067 10.85 14.6667C10.85 15.1267 10.4767 15.5 10.0167 15.5ZM10.0167 12.1667C9.55668 12.1667 9.17908 11.7933 9.17908 11.3333C9.17908 10.8733 9.54834 10.5 10.0083 10.5H10.0167C10.4775 10.5 10.85 10.8733 10.85 11.3333C10.85 11.7933 10.4767 12.1667 10.0167 12.1667ZM13.35 15.5C12.89 15.5 12.5124 15.1267 12.5124 14.6667C12.5124 14.2067 12.8817 13.8333 13.3417 13.8333H13.35C13.8108 13.8333 14.1833 14.2067 14.1833 14.6667C14.1833 15.1267 13.81 15.5 13.35 15.5ZM13.35 12.1667C12.89 12.1667 12.5124 11.7933 12.5124 11.3333C12.5124 10.8733 12.8817 10.5 13.3417 10.5H13.35C13.8108 10.5 14.1833 10.8733 14.1833 11.3333C14.1833 11.7933 13.81 12.1667 13.35 12.1667ZM17.5 6.75V7.12496C17.5 7.26329 17.3883 7.375 17.25 7.375H2.75004C2.61171 7.375 2.5 7.26329 2.5 7.12496V6.75C2.5 5.08333 3.33333 4.25 5 4.25H6.04167V3C6.04167 2.65833 6.325 2.375 6.66667 2.375C7.00833 2.375 7.29167 2.65833 7.29167 3V4.25H12.7083V3C12.7083 2.65833 12.9917 2.375 13.3333 2.375C13.675 2.375 13.9583 2.65833 13.9583 3V4.25H15C16.6667 4.25 17.5 5.08333 17.5 6.75Z" fill="black"/>
</svg>
