<svg width="38" height="38" viewBox="0 0 38 38" fill="none" xmlns="http://www.w3.org/2000/svg">
<path d="M11.0835 15.8334C8.45991 15.8334 6.3335 13.707 6.3335 11.0834C6.3335 8.45979 8.45991 6.33337 11.0835 6.33337C13.7071 6.33337 15.8335 8.45979 15.8335 11.0834C15.8335 13.707 13.7071 15.8334 11.0835 15.8334ZM31.6668 11.0834C31.6668 8.45979 29.5404 6.33337 26.9168 6.33337C24.2932 6.33337 22.1668 8.45979 22.1668 11.0834C22.1668 13.707 24.2932 15.8334 26.9168 15.8334C29.5404 15.8334 31.6668 13.707 31.6668 11.0834ZM15.8335 26.9167C15.8335 24.2931 13.7071 22.1667 11.0835 22.1667C8.45991 22.1667 6.3335 24.2931 6.3335 26.9167C6.3335 29.5403 8.45991 31.6667 11.0835 31.6667C13.7071 31.6667 15.8335 29.5403 15.8335 26.9167ZM31.6668 26.9167C31.6668 24.2931 29.5404 22.1667 26.9168 22.1667C24.2932 22.1667 22.1668 24.2931 22.1668 26.9167C22.1668 29.5403 24.2932 31.6667 26.9168 31.6667C29.5404 31.6667 31.6668 29.5403 31.6668 26.9167Z" fill="black"/>
</svg>
