<svg width="22" height="22" viewBox="0 0 22 22" fill="none" xmlns="http://www.w3.org/2000/svg">
<path d="M8.22347 3.41667C5.21347 3.41667 3.41667 5.21333 3.41667 8.22333V16.4542C3.41667 16.6583 3.23571 16.8298 3.03271 16.81C1.35038 16.642 0.5 15.6247 0.5 13.7767V3.55666C0.5 1.52666 1.5268 0.5 3.5568 0.5H13.7765C15.6245 0.5 16.642 1.35052 16.81 3.03286C16.831 3.23586 16.6595 3.41667 16.4554 3.41667H8.22347ZM18.4375 5.16667H16.8333H8.22917C6.1875 5.16667 5.16667 6.1875 5.16667 8.22917V16.8333V18.4375C5.16667 20.4792 6.1875 21.5 8.22917 21.5H18.4375C20.4792 21.5 21.5 20.4792 21.5 18.4375V8.22917C21.5 6.1875 20.4792 5.16667 18.4375 5.16667Z" fill="black"/>
</svg>
