<svg width="28" height="28" viewBox="0 0 28 28" fill="none" xmlns="http://www.w3.org/2000/svg">
<path d="M24.5 13.4167V21.2917C24.5 22.0967 23.8467 22.75 23.0417 22.75C22.2367 22.75 21.5833 22.0967 21.5833 21.2917V11.6667H22.75C23.716 11.6667 24.5 12.4507 24.5 13.4167ZM22.1667 24.5H7C4.66667 24.5 3.5 23.3333 3.5 21V7C3.5 4.66667 4.66667 3.5 7 3.5H16.3333C18.6667 3.5 19.8333 4.66667 19.8333 7V22.1667C19.8333 23.4558 20.8787 24.5 22.1667 24.5ZM7.29167 9.33333C7.29167 9.81633 7.68367 10.2083 8.16667 10.2083H11.6667C12.1497 10.2083 12.5417 9.81633 12.5417 9.33333C12.5417 8.85033 12.1497 8.45833 11.6667 8.45833H8.16667C7.68367 8.45833 7.29167 8.85033 7.29167 9.33333ZM16.0417 18.6667C16.0417 18.1837 15.6497 17.7917 15.1667 17.7917H8.16667C7.68367 17.7917 7.29167 18.1837 7.29167 18.6667C7.29167 19.1497 7.68367 19.5417 8.16667 19.5417H15.1667C15.6497 19.5417 16.0417 19.1497 16.0417 18.6667ZM16.0417 14C16.0417 13.517 15.6497 13.125 15.1667 13.125H8.16667C7.68367 13.125 7.29167 13.517 7.29167 14C7.29167 14.483 7.68367 14.875 8.16667 14.875H15.1667C15.6497 14.875 16.0417 14.483 16.0417 14Z" fill="black"/>
</svg>
