<svg width="28" height="28" viewBox="0 0 28 28" fill="none" xmlns="http://www.w3.org/2000/svg">
<path d="M13.9997 2.33331C7.55617 2.33331 2.33301 7.55648 2.33301 14C2.33301 20.4435 7.55617 25.6666 13.9997 25.6666C20.4432 25.6666 25.6663 20.4435 25.6663 14C25.6663 7.55648 20.4432 2.33331 13.9997 2.33331ZM16.5698 18.5138C16.0973 18.9863 15.4965 19.2744 14.849 19.3678V19.8333C14.849 20.3163 14.457 20.7083 13.974 20.7083C13.491 20.7083 13.099 20.3163 13.099 19.8333V19.3655C11.7655 19.1485 10.7073 18.074 10.551 16.6903C10.4973 16.2097 10.8427 15.7769 11.3233 15.7232C11.797 15.6637 12.2368 16.0149 12.2905 16.4955C12.3652 17.1605 12.9252 17.6622 13.5925 17.6622H14.4092C14.7569 17.6622 15.0847 17.5256 15.3332 17.2771C15.5817 17.0286 15.7182 16.7008 15.7182 16.3531C15.7182 15.7523 15.3099 15.2308 14.7254 15.0826L12.8493 14.6172C12.1844 14.448 11.5917 14.0618 11.1763 13.5263C10.7633 13.0036 10.5324 12.334 10.5324 11.6491C10.5324 10.1313 11.6465 8.87715 13.099 8.64032V8.16665C13.099 7.68365 13.491 7.29165 13.974 7.29165C14.457 7.29165 14.849 7.68365 14.849 8.16665V8.62864C16.207 8.82581 17.292 9.90728 17.4495 11.3096C17.5032 11.7903 17.1579 12.2231 16.6772 12.2768C16.1919 12.3328 15.7637 11.9851 15.71 11.5044C15.6353 10.8394 15.0753 10.3378 14.408 10.3378H13.5913C12.8692 10.3378 12.2824 10.9247 12.2824 11.6469C12.2824 11.9397 12.3792 12.2243 12.5542 12.4459C12.7385 12.6839 12.9858 12.845 13.2752 12.9173L15.1512 13.3828C16.5162 13.7281 17.4682 14.9485 17.4682 16.3508C17.467 17.1675 17.1485 17.9352 16.5698 18.5138Z" fill="black"/>
</svg>
