<svg width="24" height="24" viewBox="0 0 24 24" fill="none" xmlns="http://www.w3.org/2000/svg">
<path d="M11.9999 0.333313C5.55642 0.333313 0.333252 5.55648 0.333252 12C0.333252 18.4435 5.55642 23.6666 11.9999 23.6666C18.4434 23.6666 23.6666 18.4435 23.6666 12C23.6666 5.55648 18.4434 0.333313 11.9999 0.333313ZM12.0093 6.16665C13.9425 6.16665 15.5093 7.73348 15.5093 9.66665C15.5093 11.5998 13.9425 13.1666 12.0093 13.1666C10.0762 13.1666 8.50932 11.5998 8.50932 9.66665C8.50932 7.73348 10.0762 6.16665 12.0093 6.16665ZM11.9999 21.9166C9.42158 21.9166 7.06493 20.925 5.30326 19.3033C5.8166 17.6933 7.14663 16.1649 10.005 16.1649H13.9949C16.8415 16.1649 18.1716 17.705 18.6966 19.3033C16.9349 20.925 14.5783 21.9166 11.9999 21.9166Z" fill="black"/>
</svg>
