<svg width="28" height="28" viewBox="0 0 28 28" fill="none" xmlns="http://www.w3.org/2000/svg">
<path d="M24.0333 7.7L20.4167 4.08333C20.0667 3.73333 19.6 3.5 19.1333 3.5H7C4.66667 3.5 3.5 4.66667 3.5 7V21C3.5 23.3333 4.66667 24.5 7 24.5H21C23.3333 24.5 24.5 23.3333 24.5 21V8.86667C24.5 8.4 24.2667 7.93333 24.0333 7.7ZM11.0833 8.4H16.9167C17.3833 8.4 17.85 8.75 17.85 9.33333C17.85 9.8 17.5 10.2667 16.9167 10.2667H11.0833C10.6167 10.2667 10.2667 9.8 10.2667 9.33333C10.2667 8.86667 10.6167 8.4 11.0833 8.4ZM19.8333 22.4C19.8333 22.6333 19.7167 22.75 19.4833 22.75H8.51667C8.28333 22.75 8.16667 22.6333 8.16667 22.4V16.9167C8.16667 15.75 8.75 15.1667 9.91667 15.1667H18.0833C19.25 15.1667 19.8333 15.75 19.8333 16.9167V22.4Z" fill="black"/>
</svg>
