<svg width="30" height="31" viewBox="0 0 30 31" fill="none" xmlns="http://www.w3.org/2000/svg">
<path d="M26.25 22.6875V23.625C26.25 24.6625 25.4125 25.5 24.375 25.5H5.625C4.5875 25.5 3.75 24.6625 3.75 23.625V22.6875H26.25ZM25 19.25C25 19.7875 24.9625 20.3 24.875 20.8125H5.12501C5.03751 20.3 5 19.7875 5 19.25C5 14.375 8.48749 10.325 13.1 9.43749C12.5375 8.92499 12.1875 8.1875 12.1875 7.375C12.1875 5.825 13.45 4.5625 15 4.5625C16.55 4.5625 17.8125 5.825 17.8125 7.375C17.8125 8.1875 17.4625 8.92499 16.9 9.43749C21.5125 10.325 25 14.375 25 19.25ZM14.0625 7.375C14.0625 7.8875 14.4875 8.3125 15 8.3125C15.5125 8.3125 15.9375 7.8875 15.9375 7.375C15.9375 6.8625 15.5125 6.4375 15 6.4375C14.4875 6.4375 14.0625 6.8625 14.0625 7.375ZM20.8875 15C19.95 13.5 18.275 12.4 16.4125 12.075C15.9 11.9875 15.4125 12.325 15.325 12.8375C15.2375 13.35 15.575 13.8375 16.0875 13.925C17.4125 14.1625 18.65 14.95 19.2875 16C19.475 16.275 19.775 16.4375 20.0875 16.4375C20.2625 16.4375 20.425 16.3875 20.5875 16.3C21.025 16.025 21.1625 15.45 20.8875 15Z" fill="black"/>
</svg>
