<svg width="28" height="28" viewBox="0 0 28 28" fill="none" xmlns="http://www.w3.org/2000/svg">
<path d="M14.0002 1.45831C7.08416 1.45831 1.4585 7.08515 1.4585 14C1.4585 20.9148 7.08416 26.5416 14.0002 26.5416C20.9162 26.5416 26.5418 20.9148 26.5418 14C26.5418 7.08515 20.9162 1.45831 14.0002 1.45831ZM3.2085 14C3.2085 12.7563 3.43015 11.5663 3.81981 10.4533C4.54315 15.715 9.15849 16.1595 9.35799 16.9983C9.57966 17.9433 9.358 18.2233 9.43967 19.845C9.52133 21.4667 11.7613 21.49 12.6246 22.7733C12.879 23.1466 13.026 23.9458 12.963 24.7391C7.49719 24.2153 3.2085 19.6 3.2085 14ZM16.9285 24.3775C17.723 21.889 20.1088 21.0455 20.3515 19.607C20.5463 18.4531 19.0296 17.8628 17.6681 17.6948C16.3195 17.5396 16.5143 16.1268 15.5553 15.1282C14.5963 14.1295 13.9687 14.1866 12.6212 14.3546C11.2597 14.5098 10.1186 14.413 9.7418 13.5835C9.37897 12.754 9.84565 12.3573 8.85398 11.3295C8.02798 10.4731 8.91464 9.70549 9.35564 9.60166C10.0556 9.43366 11.3005 10.6575 12.0296 10.5081C14.2265 10.0555 11.5945 5.7563 14.8938 4.6748C15.4713 4.4858 16.0115 4.02616 16.2833 3.45683C18.1686 3.86516 19.865 4.77047 21.244 6.02347C21.6231 7.10264 21.8868 8.34166 21.6663 8.99849C21.2253 10.36 20.1182 11.3388 21.3269 13.5671C22.588 15.8935 23.3661 16.2097 23.9331 15.5703C24.1583 15.316 24.4512 15.1363 24.7428 15.0278C24.3147 19.5043 21.1413 23.1863 16.9285 24.3775Z" fill="black"/>
</svg>
