<svg width="58" height="58" viewBox="0 0 58 58" fill="none" xmlns="http://www.w3.org/2000/svg">
<path d="M52.5625 26.5836V41.0836C52.5625 46.9271 49.3435 50.1461 43.5 50.1461H14.5C8.6565 50.1461 5.4375 46.9271 5.4375 41.0836V16.9169C5.4375 11.0734 8.6565 7.85442 14.5 7.85442H33.8333C34.8338 7.85442 35.6458 8.66642 35.6458 9.66692C35.6458 10.6674 34.8338 11.4794 33.8333 11.4794H14.5C10.6889 11.4794 9.0625 13.1058 9.0625 16.9169V39.2711L15.2009 33.1327C16.1434 32.1902 17.6899 32.1902 18.6324 33.1327L20.9042 35.4042C21.3634 35.8634 22.1366 35.8634 22.5958 35.4042L34.5343 23.466C35.4768 22.5235 37.0232 22.5235 37.9657 23.466L48.9375 34.4378V26.5836C48.9375 25.5831 49.7495 24.7711 50.75 24.7711C51.7505 24.7711 52.5625 25.5831 52.5625 26.5836ZM19.3165 18.7294C17.6514 18.7294 16.3125 20.0828 16.3125 21.7503C16.3125 23.4178 17.6754 24.7711 19.3381 24.7711C21.0031 24.7711 22.3542 23.4178 22.3542 21.7503C22.3542 20.0828 21.0056 18.7294 19.3381 18.7294H19.3165ZM44.7809 12.1562L45.3125 11.6246V16.9169C45.3125 17.9174 46.1245 18.7294 47.125 18.7294C48.1255 18.7294 48.9375 17.9174 48.9375 16.9169V11.6269L49.4691 12.1585C49.8219 12.5114 50.286 12.6901 50.75 12.6901C51.214 12.6901 51.6781 12.5138 52.0309 12.1585C52.739 11.4504 52.739 10.3024 52.0309 9.59435L48.4059 5.96935C48.2392 5.8026 48.0385 5.67001 47.8162 5.57818C47.3739 5.39451 46.8737 5.39451 46.4314 5.57818C46.2091 5.67001 46.0085 5.8026 45.8417 5.96935L42.2167 9.59435C41.5087 10.3024 41.5087 11.4504 42.2167 12.1585C42.9248 12.8666 44.0728 12.8642 44.7809 12.1562Z" fill="#2C2C2E"/>
</svg>
