<svg width="24" height="24" viewBox="0 0 24 24" fill="none" xmlns="http://www.w3.org/2000/svg">
<path d="M11.9997 0.333374C5.55617 0.333374 0.333008 5.55654 0.333008 12C0.333008 18.4435 5.55617 23.6667 11.9997 23.6667C18.4432 23.6667 23.6663 18.4435 23.6663 12C23.6663 5.55654 18.4432 0.333374 11.9997 0.333374ZM12.8747 17.25C12.8747 17.733 12.4827 18.125 11.9997 18.125C11.5167 18.125 11.1247 17.733 11.1247 17.25V11.9172C11.1247 11.4342 11.5167 11.0422 11.9997 11.0422C12.4827 11.0422 12.8747 11.4342 12.8747 11.9172V17.25ZM12.023 9.08337C11.379 9.08337 10.8504 8.56071 10.8504 7.91671C10.8504 7.27271 11.3674 6.75004 12.0114 6.75004H12.023C12.6682 6.75004 13.1897 7.27271 13.1897 7.91671C13.1897 8.56071 12.667 9.08337 12.023 9.08337Z" fill="#25314C"/>
</svg>
