<svg width="28" height="28" viewBox="0 0 28 28" fill="none" xmlns="http://www.w3.org/2000/svg">
<path d="M24.4301 9.67164C24.3485 7.99164 23.9634 6.49832 22.7384 5.27332C21.5134 4.04832 20.0201 3.66332 18.3401 3.58166C16.6018 3.48832 11.4101 3.48832 9.68344 3.58166C8.00344 3.66332 6.52178 4.04832 5.28512 5.27332C4.04845 6.49832 3.6751 7.99164 3.59344 9.67164C3.5001 11.41 3.5001 16.6017 3.59344 18.34C3.6751 20.02 4.06012 21.5133 5.28512 22.7383C6.52178 23.9633 8.00344 24.3483 9.68344 24.43C11.4218 24.5233 16.6135 24.5233 18.3401 24.43C20.0201 24.3483 21.5134 23.9633 22.7384 22.7383C23.9634 21.5133 24.3485 20.02 24.4301 18.34C24.5235 16.6017 24.5235 11.41 24.4301 9.68332V9.67164ZM14.0001 19.5416C10.9435 19.5416 8.45845 17.0566 8.45845 14C8.45845 10.9433 10.9435 8.45832 14.0001 8.45832C17.0568 8.45832 19.5418 10.9433 19.5418 14C19.5418 17.0566 17.0568 19.5416 14.0001 19.5416ZM20.4401 8.74998C19.7984 8.74998 19.2734 8.22498 19.2734 7.58332C19.2734 6.94165 19.7868 6.41665 20.4401 6.41665C21.0818 6.41665 21.6068 6.94165 21.6068 7.58332C21.6068 8.22498 21.0818 8.74998 20.4401 8.74998ZM17.7918 14C17.7918 16.0883 16.0885 17.7916 14.0001 17.7916C11.9118 17.7916 10.2085 16.0883 10.2085 14C10.2085 11.9116 11.9118 10.2083 14.0001 10.2083C16.0885 10.2083 17.7918 11.9116 17.7918 14Z" fill="black"/>
</svg>
