<svg width="27" height="27" viewBox="0 0 27 27" fill="none" xmlns="http://www.w3.org/2000/svg">
<path d="M13.25 1.875C13.8832 1.875 14.5218 2.06366 15.0723 2.43066L15.0713 2.43164C16.4393 3.3323 17.248 4.86066 17.248 6.48047V8.625H20.1348C22.1585 8.625 23.7663 9.32356 24.5908 10.7949C25.3532 12.1558 25.1934 13.7563 24.7627 15.042L24.7637 15.043L22.5137 21.793L22.5117 21.7969C22.2829 22.4778 21.9466 23.4156 21.1523 24.1133C20.31 24.8529 19.2045 25.125 17.8838 25.125H9.33496C8.88484 25.1249 8.4735 24.9626 8.1543 24.6943C7.83503 24.9622 7.42418 25.125 6.97461 25.125H5.0625C3.30257 25.125 1.875 23.6974 1.875 21.9375V14.0625C1.875 12.3026 3.30257 10.875 5.0625 10.875H6.97461C7.28714 10.875 7.58241 10.9534 7.84082 11.0918L10.1611 4.06348L10.1689 4.03906L10.1777 4.01465C10.6778 2.66033 11.9503 1.87508 13.25 1.875Z" fill="#FDD4A4" stroke="black" stroke-width="3"/>
</svg>
