<svg width="27" height="28" viewBox="0 0 27 28" fill="none" xmlns="http://www.w3.org/2000/svg">
<path d="M13.25 2.375C13.8832 2.375 14.5218 2.56366 15.0723 2.93066L15.0713 2.93164C16.4393 3.8323 17.248 5.36066 17.248 6.98047V9.125H20.1348C22.1585 9.125 23.7663 9.82356 24.5908 11.2949C25.3532 12.6558 25.1934 14.2563 24.7627 15.542L24.7637 15.543L22.5137 22.293L22.5117 22.2969C22.2829 22.9778 21.9466 23.9156 21.1523 24.6133C20.31 25.3529 19.2045 25.625 17.8838 25.625H9.33496C8.88484 25.6249 8.4735 25.4626 8.1543 25.1943C7.83503 25.4622 7.42418 25.625 6.97461 25.625H5.0625C3.30257 25.625 1.875 24.1974 1.875 22.4375V14.5625C1.875 12.8026 3.30257 11.375 5.0625 11.375H6.97461C7.28714 11.375 7.58241 11.4534 7.84082 11.5918L10.1611 4.56348L10.1689 4.53906L10.1777 4.51465C10.6778 3.16033 11.9503 2.37508 13.25 2.375Z" fill="#FDD4A4" stroke="black" stroke-width="3"/>
</svg>
