<svg width="28" height="28" viewBox="0 0 28 28" fill="none" xmlns="http://www.w3.org/2000/svg">
<path d="M17.4997 15.1667H10.4997C9.85451 15.1667 9.33301 14.644 9.33301 14C9.33301 13.356 9.85451 12.8333 10.4997 12.8333H17.4997C18.1448 12.8333 18.6663 13.356 18.6663 14C18.6663 14.644 18.1448 15.1667 17.4997 15.1667ZM25.6663 14C25.6663 10.1407 22.5268 7 18.6663 7H16.333C15.6878 7 15.1663 7.52267 15.1663 8.16667C15.1663 8.81067 15.6878 9.33333 16.333 9.33333H18.6663C21.24 9.33333 23.333 11.4263 23.333 14C23.333 16.5737 21.24 18.6667 18.6663 18.6667H16.333C15.6878 18.6667 15.1663 19.1893 15.1663 19.8333C15.1663 20.4773 15.6878 21 16.333 21H18.6663C22.5268 21 25.6663 17.8593 25.6663 14ZM12.833 19.8333C12.833 19.1893 12.3115 18.6667 11.6663 18.6667H9.33301C6.75934 18.6667 4.66634 16.5737 4.66634 14C4.66634 11.4263 6.75934 9.33333 9.33301 9.33333H11.6663C12.3115 9.33333 12.833 8.81067 12.833 8.16667C12.833 7.52267 12.3115 7 11.6663 7H9.33301C5.47251 7 2.33301 10.1407 2.33301 14C2.33301 17.8593 5.47251 21 9.33301 21H11.6663C12.3115 21 12.833 20.4773 12.833 19.8333Z" fill="black"/>
</svg>
