<svg width="30" height="31" viewBox="0 0 30 31" fill="none" xmlns="http://www.w3.org/2000/svg">
<path d="M15 3.625C9.14125 3.625 4.375 8.39125 4.375 14.25C4.375 20.4788 10.1613 24.3012 13.99 26.83L14.6525 27.27C14.7575 27.34 14.8787 27.375 14.9987 27.375C15.1187 27.375 15.24 27.34 15.345 27.27L16.0075 26.83C19.8362 24.3012 25.6225 20.4788 25.6225 14.25C25.625 8.39125 20.8587 3.625 15 3.625ZM15 17.375C13.2738 17.375 11.875 15.9762 11.875 14.25C11.875 12.5238 13.2738 11.125 15 11.125C16.7262 11.125 18.125 12.5238 18.125 14.25C18.125 15.9762 16.7262 17.375 15 17.375Z" fill="black"/>
</svg>
