<svg width="28" height="29" viewBox="0 0 28 29" fill="none" xmlns="http://www.w3.org/2000/svg">
<path d="M3.5 7.5V21.5C3.5 23.8333 4.66667 25 7 25H14C16.3333 25 17.5 23.8333 17.5 21.5V20.3333V15.375H11.4461L13.4528 17.3817C13.7947 17.7235 13.7947 18.2777 13.4528 18.6195C13.2825 18.7898 13.0585 18.8762 12.8345 18.8762C12.6105 18.8762 12.3865 18.791 12.2162 18.6195L8.71618 15.1195C8.63568 15.039 8.57153 14.9422 8.52719 14.8348C8.43852 14.6213 8.43852 14.3798 8.52719 14.1663C8.57153 14.059 8.63568 13.9622 8.71618 13.8817L12.2162 10.3817C12.558 10.0398 13.1121 10.0398 13.454 10.3817C13.7958 10.7235 13.7958 11.2777 13.454 11.6195L11.4473 13.6262H17.5V8.66667V7.5C17.5 5.16667 16.3333 4 14 4H7C4.66667 4 3.5 5.16667 3.5 7.5ZM24.5 13.625C24.983 13.625 25.375 14.017 25.375 14.5C25.375 14.983 24.983 15.375 24.5 15.375H17.5V13.625H24.5Z" fill="black"/>
</svg>
