<svg width="22" height="22" viewBox="0 0 22 22" fill="none" xmlns="http://www.w3.org/2000/svg">
<path d="M2.61653 7.86102L1.65287 8.34267C0.945873 8.69617 0.499023 9.41848 0.499023 10.2083V20.0316C0.499023 20.9066 1.40904 21.4667 2.1907 21.0817L5.73154 19.3001C5.84938 19.2406 5.92402 19.1192 5.92402 18.9874V13.2802C5.92402 13.188 5.88788 13.1017 5.82255 13.0375C4.51471 11.7449 3.41221 10.1359 3.11121 8.13275C3.07621 7.89358 2.83119 7.75369 2.61653 7.86102ZM11.9569 16.2399L10.9885 16.8933L10.0202 16.2399C10.0202 16.2399 8.99353 15.5644 8.22353 15.0254C7.99253 14.8632 7.67519 15.0313 7.67519 15.3136V18.8558C7.67519 19.0016 7.7662 19.1323 7.9027 19.1836L13.8527 21.4175C14.0814 21.5027 14.3252 21.3335 14.3252 21.0897V15.2937C14.3252 15.0113 14.009 14.8447 13.778 15.0046C12.9987 15.5459 11.9569 16.2399 11.9569 16.2399ZM19.8085 6.61489L19.1657 6.93589C18.9639 7.02106 18.965 7.23575 18.9604 7.33608C18.8554 9.70325 17.6432 11.5617 16.1755 13.0259C16.1114 13.09 16.074 13.1764 16.074 13.2685V20.9231C16.074 21.1832 16.3482 21.3522 16.5815 21.2355L20.344 19.3445C21.0557 18.9829 21.499 18.2594 21.499 17.4661V7.65452C21.5002 6.61502 20.5902 6.22989 19.8085 6.61489ZM10.9885 0.781555C7.55852 0.781555 4.7702 3.55831 4.7702 6.99998C4.7702 10.885 8.65519 13.2182 10.9885 14.7816C13.3219 13.2182 17.2185 10.885 17.2185 6.99998C17.2185 3.55831 14.4302 0.781555 10.9885 0.781555ZM10.9885 8.94822C9.91519 8.94822 9.05185 8.07331 9.05185 6.99998C9.05185 5.92665 9.91519 5.05174 10.9885 5.05174C12.0619 5.05174 12.9369 5.92665 12.9369 6.99998C12.9369 8.07331 12.0619 8.94822 10.9885 8.94822Z" fill="black"/>
</svg>
