<svg width="30" height="31" viewBox="0 0 30 31" fill="none" xmlns="http://www.w3.org/2000/svg">
<path d="M20 4.25H10C7.5 4.25 6.25 5.5 6.25 8V23C6.25 25.5 7.5 26.75 10 26.75H20C22.5 26.75 23.75 25.5 23.75 23V8C23.75 5.5 22.5 4.25 20 4.25ZM15 24.25C14.31 24.25 13.75 23.69 13.75 23C13.75 22.31 14.31 21.75 15 21.75C15.69 21.75 16.25 22.31 16.25 23C16.25 23.69 15.69 24.25 15 24.25ZM16.875 8.9375H13.125C12.6075 8.9375 12.1875 8.5175 12.1875 8C12.1875 7.4825 12.6075 7.0625 13.125 7.0625H16.875C17.3925 7.0625 17.8125 7.4825 17.8125 8C17.8125 8.5175 17.3925 8.9375 16.875 8.9375Z" fill="black"/>
</svg>
