<svg width="18" height="23" viewBox="0 0 18 23" fill="none" xmlns="http://www.w3.org/2000/svg">
<path d="M14.5417 8.56779V6.16667C14.5417 3.11 12.0567 0.625 9.00004 0.625C5.94337 0.625 3.45837 3.11 3.45837 6.16667V8.56779C1.71071 8.83962 0.833374 9.9805 0.833374 12V19C0.833374 21.3333 2.00004 22.5 4.33337 22.5H13.6667C16 22.5 17.1667 21.3333 17.1667 19V12C17.1667 9.9805 16.2894 8.83962 14.5417 8.56779ZM9.87504 15.4849V17.8333C9.87504 18.3163 9.48304 18.7083 9.00004 18.7083C8.51704 18.7083 8.12504 18.3163 8.12504 17.8333V15.4556C7.78904 15.1884 7.55908 14.7942 7.55908 14.3333C7.55908 13.5283 8.20672 12.875 9.01172 12.875H9.0234C9.8284 12.875 10.4817 13.5283 10.4817 14.3333C10.4817 14.814 10.2332 15.2201 9.87504 15.4849ZM12.7917 8.5H5.20837V6.16667C5.20837 4.07833 6.91171 2.375 9.00004 2.375C11.0884 2.375 12.7917 4.07833 12.7917 6.16667V8.5Z" fill="black"/>
</svg>
