<svg width="39" height="38" viewBox="0 0 39 38" fill="none" xmlns="http://www.w3.org/2000/svg">
<path d="M19.7498 3.16663C11.0098 3.16663 3.9165 10.26 3.9165 19C3.9165 27.74 11.0098 34.8333 19.7498 34.8333C28.4898 34.8333 35.5832 27.74 35.5832 19C35.5832 10.26 28.4898 3.16663 19.7498 3.16663ZM25.2915 20.1875H20.9373V24.5416C20.9373 25.1908 20.399 25.7291 19.7498 25.7291C19.1007 25.7291 18.5623 25.1908 18.5623 24.5416V20.1875H14.2082C13.559 20.1875 13.0207 19.6491 13.0207 19C13.0207 18.3508 13.559 17.8125 14.2082 17.8125H18.5623V13.4583C18.5623 12.8091 19.1007 12.2708 19.7498 12.2708C20.399 12.2708 20.9373 12.8091 20.9373 13.4583V17.8125H25.2915C25.9407 17.8125 26.479 18.3508 26.479 19C26.479 19.6491 25.9407 20.1875 25.2915 20.1875Z" fill="black"/>
</svg>
