<svg width="38" height="38" viewBox="0 0 38 38" fill="none" xmlns="http://www.w3.org/2000/svg">
<path d="M18.9998 3.16663C10.2551 3.16663 3.1665 10.2552 3.1665 19C3.1665 27.7447 10.2551 34.8333 18.9998 34.8333C27.7446 34.8333 34.8332 27.7447 34.8332 19C34.8332 10.2552 27.7446 3.16663 18.9998 3.16663ZM19.0126 11.0833C21.6362 11.0833 23.7626 13.2097 23.7626 15.8333C23.7626 18.4569 21.6362 20.5833 19.0126 20.5833C16.389 20.5833 14.2626 18.4569 14.2626 15.8333C14.2626 13.2097 16.389 11.0833 19.0126 11.0833ZM18.9998 32.4583C15.5007 32.4583 12.3024 31.1125 9.91152 28.9116C10.6082 26.7266 12.4132 24.6524 16.2924 24.6524H21.7073C25.5706 24.6524 27.3757 26.7425 28.0882 28.9116C25.6973 31.1125 22.499 32.4583 18.9998 32.4583Z" fill="black"/>
</svg>
