<svg width="38" height="38" viewBox="0 0 38 38" fill="none" xmlns="http://www.w3.org/2000/svg">
<path d="M27.9727 3.16663H10.0287C6.51056 3.16663 4.75146 4.92572 4.75146 8.44389V24.2772C4.75146 27.7954 6.51056 29.5545 10.0287 29.5545H12.4037C13.235 29.5545 14.0172 29.9456 14.5143 30.6106L16.8893 33.7772C17.9454 35.1848 20.056 35.1848 21.1121 33.7772L23.4871 30.6106C23.9858 29.9456 24.768 29.5545 25.5977 29.5545H27.9727C31.4908 29.5545 33.2499 27.7954 33.2499 24.2772V8.44389C33.2499 4.92572 31.4908 3.16663 27.9727 3.16663ZM26.6491 15.2681L23.799 18.05C23.59 18.2527 23.495 18.5472 23.5441 18.8337L24.1964 22.6416C24.3278 23.4143 23.5202 24.0033 22.8299 23.6391L19.4101 21.8389C19.1536 21.7043 18.8478 21.7043 18.5913 21.8389L15.1746 23.6376C14.4811 24.0017 13.6736 23.4111 13.805 22.6384L14.4573 18.8337C14.5064 18.5456 14.4114 18.2527 14.2024 18.05L11.3525 15.2681C10.8284 14.7566 11.1165 13.8652 11.8401 13.7591L15.7826 13.186C16.0692 13.1448 16.3177 12.9627 16.4459 12.7031L18.1543 9.2371C18.5011 8.5341 19.5003 8.5341 19.8471 9.2371L21.5554 12.7031C21.6837 12.9643 21.9322 13.1448 22.2188 13.186L26.1613 13.7591C26.8848 13.8636 27.1732 14.7566 26.6491 15.2681Z" fill="black"/>
</svg>
