<svg width="20" height="20" viewBox="0 0 20 20" fill="none" xmlns="http://www.w3.org/2000/svg">
<g filter="url(#filter0_d_57_158)">
<path d="M10.1306 1.54656L11.9108 5.13714C12.0446 5.40756 12.3031 5.59457 12.6029 5.63766L16.7122 6.23161C17.4657 6.34069 17.7664 7.26471 17.221 7.79454L14.2501 10.6775C14.0329 10.8883 13.9338 11.1917 13.9851 11.4896L14.6644 15.435C14.8019 16.2352 13.9613 16.8457 13.2408 16.469L9.67685 14.6036C9.40919 14.4633 9.09016 14.4633 8.82341 14.6036L5.26215 16.4671C4.54073 16.8448 3.69737 16.2334 3.83579 15.4313L4.51512 11.4896C4.56645 11.1917 4.46739 10.8883 4.25014 10.6775L1.27926 7.79454C0.732925 7.26471 1.03353 6.34069 1.78795 6.23161L5.89739 5.63766C6.19623 5.59457 6.45473 5.40756 6.58948 5.13714L8.36966 1.54656C8.72808 0.817812 9.76943 0.817812 10.1306 1.54656Z" fill="#FFBD2E"/>
<path d="M7.92188 1.32422C8.46487 0.223457 10.0341 0.227263 10.5781 1.32422L12.3584 4.91504H12.3594C12.4199 5.03729 12.5365 5.12278 12.6738 5.14258H12.6748L16.7842 5.73633C17.9101 5.89953 18.3834 7.24474 17.6445 8.07422L17.5693 8.15332L14.5986 11.0361C14.4997 11.1322 14.4545 11.2696 14.4775 11.4043V11.4053L15.1572 15.3506C15.3649 16.5608 14.0942 17.4797 13.0088 16.9121L9.44531 15.0469H9.44434C9.32179 14.9827 9.17643 14.9824 9.05566 15.0459V15.0469L5.49414 16.9102C4.4084 17.4786 3.13382 16.5596 3.34277 15.3467L4.02246 11.4043C4.04551 11.2697 4.00122 11.1322 3.90234 11.0361L0.930664 8.15332L0.931641 8.15234C0.0862237 7.33198 0.553686 5.90451 1.7168 5.73633L5.82617 5.14258C5.96226 5.12291 6.07993 5.03775 6.1416 4.91406L7.92188 1.32422Z" stroke="black"/>
</g>
<defs>
<filter id="filter0_d_57_158" x="-0.00143433" y="0" width="19.5024" height="19.585" filterUnits="userSpaceOnUse" color-interpolation-filters="sRGB">
<feFlood flood-opacity="0" result="BackgroundImageFix"/>
<feColorMatrix in="SourceAlpha" type="matrix" values="0 0 0 0 0 0 0 0 0 0 0 0 0 0 0 0 0 0 127 0" result="hardAlpha"/>
<feOffset dx="1" dy="2"/>
<feComposite in2="hardAlpha" operator="out"/>
<feColorMatrix type="matrix" values="0 0 0 0 0 0 0 0 0 0 0 0 0 0 0 0 0 0 1 0"/>
<feBlend mode="normal" in2="BackgroundImageFix" result="effect1_dropShadow_57_158"/>
<feBlend mode="normal" in="SourceGraphic" in2="effect1_dropShadow_57_158" result="shape"/>
</filter>
</defs>
</svg>
