<svg width="22" height="22" viewBox="0 0 22 22" fill="none" xmlns="http://www.w3.org/2000/svg">
<path d="M20.2866 14.745L14.7333 20.31C13.1349 21.8966 11.4901 21.8966 9.9034 20.31L8.96531 19.3615C8.82881 19.225 8.82881 19.0033 8.96531 18.8668L18.8541 8.9782C18.9906 8.8417 19.2122 8.8417 19.3487 8.9782L20.2855 9.91501C21.9317 11.56 21.8733 13.1467 20.2866 14.745ZM17.6477 7.77066L7.75905 17.6593C7.62255 17.7958 7.4008 17.7958 7.2643 17.6593L1.50332 11.8984C0.860483 11.2555 0.5 10.3851 0.5 9.4763V2.77501C0.5 1.51851 1.51844 0.5 2.77494 0.5H9.46818C10.3758 0.5 11.2462 0.860483 11.8867 1.50332L17.6477 7.27598C17.7842 7.41248 17.7842 7.63416 17.6477 7.77066ZM6.33333 5.16667C6.33333 4.52267 5.81295 4 5.16895 4H5.15727C4.5156 4 3.99886 4.52267 3.99886 5.16667C3.99886 5.81067 4.52614 6.33333 5.16781 6.33333C5.81297 6.33333 6.33333 5.81067 6.33333 5.16667Z" fill="black"/>
</svg>
