<svg width="28" height="28" viewBox="0 0 28 28" fill="none" xmlns="http://www.w3.org/2000/svg">
<path d="M23.3332 12.11C21.5249 12.11 19.4715 11.55 18.0015 10.5V17.8267C18.0015 21.5134 15.0149 24.5 11.3282 24.4884C7.64156 24.4884 4.65487 21.5017 4.66654 17.815C4.66654 14.1284 7.65317 11.1417 11.3398 11.1534C11.6432 11.1534 11.9465 11.1767 12.2499 11.2117V14.8984C10.6399 14.3967 8.91323 15.2834 8.41156 16.905C7.9099 18.5267 8.79653 20.2417 10.4182 20.7434C12.0282 21.245 13.7548 20.3584 14.2565 18.7367C14.3498 18.445 14.3966 18.13 14.3966 17.815V3.47668H18.0015C18.0015 3.78002 18.0249 4.08335 18.0832 4.38668C18.3399 5.74002 19.1332 6.93002 20.2999 7.67669C21.1166 8.21336 22.3649 8.50501 23.3449 8.50501V12.0867L23.3332 12.11Z" fill="black"/>
</svg>
