<svg width="29" height="28" viewBox="0 0 29 28" fill="none" xmlns="http://www.w3.org/2000/svg">
<path d="M14.4997 2.33331C8.05967 2.33331 2.83301 7.55998 2.83301 14C2.83301 20.44 8.05967 25.6666 14.4997 25.6666C20.9397 25.6666 26.1663 20.44 26.1663 14C26.1663 7.55998 20.9397 2.33331 14.4997 2.33331ZM18.618 16.8816C18.9563 17.2199 18.9563 17.78 18.618 18.1183C18.443 18.2933 18.2213 18.375 17.9997 18.375C17.778 18.375 17.5563 18.2933 17.3813 18.1183L14.4997 15.2366L11.618 18.1183C11.443 18.2933 11.2213 18.375 10.9997 18.375C10.778 18.375 10.5563 18.2933 10.3813 18.1183C10.043 17.78 10.043 17.2199 10.3813 16.8816L13.263 14L10.3813 11.1183C10.043 10.78 10.043 10.2199 10.3813 9.88161C10.7197 9.54328 11.2797 9.54328 11.618 9.88161L14.4997 12.7633L17.3813 9.88161C17.7197 9.54328 18.2797 9.54328 18.618 9.88161C18.9563 10.2199 18.9563 10.78 18.618 11.1183L15.7363 14L18.618 16.8816Z" fill="#25314C"/>
</svg>
