<svg width="24" height="24" viewBox="0 0 24 24" fill="none" xmlns="http://www.w3.org/2000/svg">
<path d="M12 0.333313C5.55654 0.333313 0.333374 5.55648 0.333374 12C0.333374 18.4435 5.55654 23.6666 12 23.6666C18.4435 23.6666 23.6667 18.4435 23.6667 12C23.6667 5.55648 18.4435 0.333313 12 0.333313ZM12.0094 6.16665C13.9426 6.16665 15.5094 7.73348 15.5094 9.66665C15.5094 11.5998 13.9426 13.1666 12.0094 13.1666C10.0763 13.1666 8.50944 11.5998 8.50944 9.66665C8.50944 7.73348 10.0763 6.16665 12.0094 6.16665ZM12 21.9166C9.42171 21.9166 7.06505 20.925 5.30339 19.3033C5.81672 17.6933 7.14675 16.1649 10.0051 16.1649H13.995C16.8417 16.1649 18.1717 17.705 18.6967 19.3033C16.935 20.925 14.5784 21.9166 12 21.9166Z" fill="black"/>
</svg>
