<svg width="22" height="19" viewBox="0 0 22 19" fill="none" xmlns="http://www.w3.org/2000/svg">
<path d="M18 0.833313H4C1.66667 0.833313 0.5 1.99998 0.5 4.33331V14.8333C0.5 17.1666 1.66667 18.3333 4 18.3333H18C20.3333 18.3333 21.5 17.1666 21.5 14.8333V4.33331C21.5 1.99998 20.3333 0.833313 18 0.833313ZM17.9311 6.20698L12.2006 10.3743C11.8412 10.6356 11.42 10.7663 11 10.7663C10.58 10.7663 10.1576 10.6356 9.79944 10.3755L4.06893 6.20698C3.6781 5.92348 3.59172 5.37514 3.87638 4.98431C4.15988 4.59464 4.70454 4.50599 5.09888 4.79182L10.8297 8.95914C10.9323 9.03264 11.0688 9.03381 11.1715 8.95914L16.9023 4.79182C17.2954 4.50599 17.8413 4.59464 18.1248 4.98431C18.4094 5.37631 18.3219 5.92348 17.9311 6.20698Z" fill="black"/>
</svg>
